<?xml version="1.0" encoding="utf-8"?>
<!-- Generator: Adobe Illustrator 28.0.0, SVG Export Plug-In . SVG Version: 6.00 Build 0)  -->
<svg version="1.1" id="Layer_1" xmlns="http://www.w3.org/2000/svg" xmlns:xlink="http://www.w3.org/1999/xlink" x="0px" y="0px"
	 viewBox="0 0 1128 300" style="enable-background:new 0 0 1128 300;" xml:space="preserve">
<style type="text/css">
	.st0{fill:#00AEEF;}
	.st1{fill:#FFF200;}
	.st2{fill:#2B3990;}
	.st3{fill:#00A79D;}
	.st4{fill:#00A651;}
	.st5{fill:#BB2025;}
	.st6{fill:#D1D3D4;}
	.st7{fill:#F7941D;}
</style>
<rect x="126.6" y="202.5" transform="matrix(-0.866 -0.5 0.5 -0.866 222.871 551.3435)" class="st1" width="117.4" height="86.6"/>
<circle class="st2" cx="176.1" cy="297" r="46.6"/>
<circle class="st2" cx="204.9" cy="165" r="49.5"/>
<circle cx="123.1" cy="254.7" r="34"/>
<circle class="st0" cx="151.7" cy="137.4" r="25.9"/>
<rect x="63" y="84.6" transform="matrix(0.9329 0.3601 -0.3601 0.9329 43.394 -22.9894)" width="40.7" height="40.7"/>
<path class="st5" d="M32.8,318.9c0-14.3-11.6-25.9-25.9-25.9s-25.9,11.6-25.9,25.9s11.6,25.9,25.9,25.9S32.8,333.3,32.8,318.9z"/>
<path class="st2" d="M117.8,165.6c0-27.3-22.1-49.5-49.5-49.5s-49.5,22.1-49.5,49.5s22.1,49.5,49.5,49.5S117.8,192.9,117.8,165.6z"
	/>
<rect x="27.1" y="228.9" class="st1" width="117.4" height="107.9"/>
<rect x="24.3" y="196.3" transform="matrix(0.866 0.5 -0.5 0.866 128.5238 -10.0326)" class="st3" width="117.4" height="77.1"/>
<rect x="-76.9" y="87.5" transform="matrix(0.7269 0.6867 -0.6867 0.7269 73.1794 23.6483)" class="st6" width="167.4" height="32.7"/>
<rect x="-70.9" y="209.4" transform="matrix(0.866 0.5 -0.5 0.866 126.9232 52.8956)" class="st6" width="71.3" height="107.9"/>
<rect x="-29.6" y="83.8" transform="matrix(-5.598579e-02 0.9984 -0.9984 -5.598579e-02 142.111 141.0922)" class="st5" width="67.9" height="107.9"/>
<path d="M160.6,296.9c0-18.8-15.2-34-34-34s-34,15.2-34,34s15.2,34,34,34S160.6,315.7,160.6,296.9z"/>
<polygon class="st0" points="-47.1,246.9 5,267.1 -3.6,211.9 -12.2,156.8 -55.7,191.8 -99.2,226.8 "/>
<circle class="st5" cx="18.9" cy="250.9" r="49.5"/>
<ellipse class="st0" cx="48.2" cy="65.9" rx="47.2" ry="32.3"/>
<polygon class="st2" points="13.2,326 41.8,340.5 40,308.5 38.3,276.5 11.5,294 -15.4,311.5 "/>
<rect x="-24" y="174.4" transform="matrix(0.2345 -0.9721 0.9721 0.2345 -191.8631 162.4363)" class="st7" width="62.4" height="57.3"/>
<rect x="-20.6" y="145" transform="matrix(-0.5 -0.866 0.866 -0.5 -102.0444 270.4991)" class="st1" width="95.3" height="39.4"/>
<rect x="-95.6" y="154.7" transform="matrix(0.9329 0.3601 -0.3601 0.9329 58.6624 28.8141)" width="95.3" height="34.4"/>
<rect x="-58.5" y="284.9" transform="matrix(0.3601 -0.9329 0.9329 0.3601 -296.3786 177.1161)" class="st3" width="78.9" height="39.4"/>
<circle class="st0" cx="121.6" cy="193.2" r="25.9"/>
<polygon class="st1" points="-30.4,267.4 -20.9,280.3 -6.2,259.4 8.6,238.5 -15.7,246.5 -40,254.4 "/>
<ellipse class="st5" cx="14.6" cy="44.1" rx="43.7" ry="33.3"/>
<polygon points="61.7,224.1 54.9,240 72.1,238 89.3,235.9 78.9,222.1 68.5,208.2 "/>
<polygon class="st3" points="30.9,95.6 16.5,133 48.2,123.8 79.9,114.5 62.6,86.4 45.3,58.3 "/>
<ellipse transform="matrix(0.8789 -0.477 0.477 0.8789 -40.983 17.8303)" class="st7" cx="14.6" cy="89.6" rx="15.7" ry="26.2"/>
<rect x="7.2" y="108.7" transform="matrix(0.9095 -0.4157 0.4157 0.9095 -46.9512 16.5909)" class="st2" width="14.8" height="14.8"/>
<rect x="-5.5" y="268.8" transform="matrix(0.866 -0.5 0.5 0.866 -140.2754 42.169)" width="28.1" height="28.1"/>
<polygon class="st7" points="166.1,152.3 160.2,200.4 121.4,171.2 82.7,142 127.4,123.1 172,104.2 "/>
<rect x="129.1" y="221.6" transform="matrix(0.866 0.5 -0.5 0.866 159.8468 -45.4588)" class="st6" width="71.3" height="107.9"/>
<rect x="209.7" y="138.3" transform="matrix(-5.598579e-02 0.9984 -0.9984 -5.598579e-02 449.2678 -40.2749)" class="st5" width="67.9" height="107.9"/>
<polygon class="st0" points="152.9,259.2 205,279.3 196.4,224.2 187.7,169 144.3,204.1 100.8,239.1 "/>
<rect x="104.3" y="166.9" transform="matrix(0.9329 0.3601 -0.3601 0.9329 76.4932 -42.3801)" width="95.3" height="34.4"/>
<rect x="258.8" y="195.5" transform="matrix(-0.866 -0.5 0.5 -0.866 473.0434 604.4548)" class="st1" width="117.4" height="86.6"/>
<circle class="st2" cx="308.3" cy="290.1" r="46.6"/>
<rect x="301.7" y="198.3" transform="matrix(-0.9329 -0.3601 0.3601 -0.9329 543.7863 538.6374)" width="40.7" height="40.7"/>
<circle cx="255.3" cy="247.8" r="34"/>
<path class="st5" d="M165,312c0-14.3-11.6-25.9-25.9-25.9s-25.9,11.6-25.9,25.9s11.6,25.9,25.9,25.9S165,326.3,165,312z"/>
<rect x="159.3" y="221.9" class="st1" width="117.4" height="107.9"/>
<rect x="156.5" y="189.3" transform="matrix(0.866 0.5 -0.5 0.866 142.755 -77.0661)" class="st3" width="117.4" height="77.1"/>
<rect x="61.3" y="202.4" transform="matrix(0.866 0.5 -0.5 0.866 141.1543 -14.1379)" class="st6" width="71.3" height="107.9"/>
<path d="M292.8,290c0-18.8-15.2-34-34-34s-34,15.2-34,34s15.2,34,34,34S292.8,308.8,292.8,290z"/>
<polygon class="st0" points="85.1,240 137.2,260.1 128.6,205 120,149.8 76.5,184.8 33,219.9 "/>
<circle class="st5" cx="151.1" cy="244" r="49.5"/>
<polygon class="st2" points="145.4,319.1 174,333.6 172.2,301.6 170.5,269.6 143.7,287.1 116.8,304.5 "/>
<rect x="108.2" y="167.4" transform="matrix(0.2345 -0.9721 0.9721 0.2345 -83.896 285.623)" class="st7" width="62.4" height="57.3"/>
<rect x="111.6" y="138.1" transform="matrix(-0.5 -0.866 0.866 -0.5 102.2867 374.5476)" class="st1" width="95.3" height="39.4"/>
<rect x="73.7" y="278" transform="matrix(0.3601 -0.9329 0.9329 0.3601 -205.2878 295.9948)" class="st3" width="78.9" height="39.4"/>
<polygon class="st1" points="101.8,260.4 111.3,273.3 126,252.4 140.8,231.6 116.5,239.5 92.2,247.5 "/>
<polygon points="193.9,217.2 187.1,233 204.3,231 221.5,228.9 211.1,215.1 200.7,201.3 "/>
<rect x="126.7" y="261.8" transform="matrix(0.866 -0.5 0.5 0.866 -119.0832 107.3373)" width="28.1" height="28.1"/>
<rect x="807.4" y="216.7" transform="matrix(-0.866 -0.5 0.5 -0.866 1486.097 918.3008)" class="st1" width="117.4" height="86.6"/>
<circle class="st2" cx="856.9" cy="311.3" r="46.6"/>
<rect x="850.3" y="219.5" transform="matrix(-0.9329 -0.3601 0.3601 -0.9329 1596.5002 777.1526)" width="40.7" height="40.7"/>
<circle class="st3" cx="1023.3" cy="237.7" r="49.5"/>
<rect x="1004.1" y="268.9" transform="matrix(-0.987 -0.1605 0.1605 -0.987 2023.2621 779.1525)" class="st1" width="77.9" height="77.9"/>
<circle class="st2" cx="606.9" cy="243.1" r="49.5"/>
<rect x="863.5" y="224.7" transform="matrix(-0.7269 -0.6867 0.6867 -0.7269 1470.2429 1066.6145)" class="st6" width="167.4" height="32.7"/>
<circle cx="803.9" cy="269" r="34"/>
<ellipse class="st0" cx="905.9" cy="279" rx="47.2" ry="32.3"/>
<rect x="367.8" y="178.5" transform="matrix(0.5 0.866 -0.866 0.5 379.3449 -260.7104)" class="st1" width="95.3" height="39.4"/>
<polygon class="st7" points="1004.7,214.6 1013.3,192.3 1016.2,206.2 1019,220.1 1007.5,228.5 996.1,236.9 "/>
<polygon class="st5" points="1065.4,278.9 1047.2,285.5 1052.5,271.6 1057.8,257.8 1070.6,265.1 1083.5,272.4 "/>
<ellipse class="st5" cx="939.4" cy="300.7" rx="43.7" ry="33.3"/>
<polygon points="1177.9,327 1184.7,311.1 1147.4,304.6 1110.1,298 1140.6,320.5 1171,342.9 "/>
<polygon class="st3" points="923.2,249.2 937.6,211.9 905.9,221.1 874.1,230.3 891.4,258.4 908.8,286.6 "/>
<ellipse transform="matrix(0.8789 -0.477 0.477 0.8789 -7.9748 478.9933)" class="st7" cx="939.4" cy="255.2" rx="15.7" ry="26.2"/>
<ellipse transform="matrix(0.7268 -0.6869 0.6869 0.7268 86.0474 838.8631)" class="st7" cx="1097.5" cy="311.3" rx="26.2" ry="32.4"/>
<rect x="932" y="221.3" transform="matrix(-0.9095 0.4157 -0.4157 -0.9095 1888.8806 46.1873)" class="st2" width="14.8" height="14.8"/>
<rect x="967.2" y="293.1" transform="matrix(-0.8328 -0.5536 0.5536 -0.8328 1641.2539 1130.1923)" class="st2" width="48.3" height="48.3"/>
<path class="st2" d="M1186.8,258c0-27.3-22.1-49.5-49.5-49.5s-49.5,22.1-49.5,49.5s22.1,49.5,49.5,49.5S1186.8,285.4,1186.8,258z"/>
<rect x="707.9" y="243.1" class="st1" width="90.7" height="107.9"/>
<rect x="705.1" y="210.5" transform="matrix(0.866 0.5 -0.5 0.866 226.8497 -348.513)" class="st3" width="117.4" height="77.1"/>
<rect x="609.9" y="223.6" transform="matrix(0.866 0.5 -0.5 0.866 225.2491 -285.5848)" class="st6" width="71.3" height="107.9"/>
<path d="M841.4,311.2c0-18.8-15.2-34-34-34s-34,15.2-34,34s15.2,34,34,34S841.4,330,841.4,311.2z"/>
<polygon class="st0" points="633.7,261.2 685.7,281.3 677.1,226.2 668.5,171 625.1,206 581.6,241.1 "/>
<circle class="st5" cx="699.7" cy="265.2" r="49.5"/>
<polygon class="st2" points="694,340.3 722.5,354.8 720.8,322.8 719.1,290.8 692.2,308.3 665.4,325.7 "/>
<rect x="656.8" y="188.6" transform="matrix(0.2345 -0.9721 0.9721 0.2345 315.4274 835.1286)" class="st7" width="62.4" height="57.3"/>
<rect x="1048.4" y="237.5" transform="matrix(-0.5 -0.866 0.866 -0.5 1421.3511 1334.9553)" class="st1" width="95.3" height="39.4"/>
<rect x="973.3" y="247.1" transform="matrix(0.9329 0.3601 -0.3601 0.9329 163.6687 -349.9164)" width="95.3" height="34.4"/>
<rect x="622.3" y="299.2" transform="matrix(0.3601 -0.9329 0.9329 0.3601 125.9708 821.3342)" class="st3" width="78.9" height="39.4"/>
<circle class="st0" cx="802.3" cy="207.4" r="25.9"/>
<polygon class="st1" points="650.3,281.6 659.9,294.5 674.6,273.6 689.3,252.8 665.1,260.7 640.8,268.7 "/>
<polygon points="742.5,238.4 735.7,254.2 752.9,252.2 770,250.1 759.7,236.3 749.3,222.5 "/>
<rect x="675.3" y="283" transform="matrix(0.866 -0.5 0.5 0.866 -56.1879 384.4646)" width="28.1" height="28.1"/>
<polygon class="st7" points="1183.5,304.6 1177.6,352.7 1138.9,323.5 1100.2,294.4 1144.8,275.4 1189.5,256.5 "/>
<rect x="458.8" y="207.8" transform="matrix(-0.866 -0.5 0.5 -0.866 840.1071 727.3273)" class="st1" width="117.4" height="86.6"/>
<circle class="st2" cx="508.3" cy="302.3" r="46.6"/>
<rect x="501.7" y="210.6" transform="matrix(-0.9329 -0.3601 0.3601 -0.9329 925.9427 634.3496)" width="40.7" height="40.7"/>
<rect x="539.4" y="238.9" transform="matrix(-0.7269 -0.6867 0.6867 -0.7269 900.8273 868.6101)" class="st6" width="167.4" height="32.7"/>
<circle cx="455.3" cy="260" r="34"/>
<ellipse class="st0" cx="557.3" cy="270" rx="47.2" ry="32.3"/>
<ellipse class="st5" cx="590.8" cy="291.8" rx="43.7" ry="33.3"/>
<polygon class="st3" points="574.6,240.3 589,202.9 557.3,212.1 525.6,221.4 542.9,249.5 560.2,277.6 "/>
<ellipse transform="matrix(0.8789 -0.477 0.477 0.8789 -45.9203 311.6412)" class="st7" cx="590.8" cy="246.3" rx="15.7" ry="26.2"/>
<rect x="583.4" y="212.4" transform="matrix(-0.9095 0.4157 -0.4157 -0.9095 1219.5533 174.0308)" class="st2" width="14.8" height="14.8"/>
<rect x="165.3" y="172.5" transform="matrix(-0.8328 -0.5536 0.5536 -0.8328 238.3058 465.2102)" class="st2" width="48.3" height="48.3"/>
<path class="st5" d="M365,324.2c0-14.3-11.6-25.9-25.9-25.9c-14.3,0-25.9,11.6-25.9,25.9c0,14.3,11.6,25.9,25.9,25.9
	C353.4,350.2,365,338.6,365,324.2z"/>
<rect x="359.3" y="234.2" class="st1" width="117.4" height="107.9"/>
<rect x="356.5" y="201.6" transform="matrix(0.866 0.5 -0.5 0.866 175.6785 -175.4205)" class="st3" width="117.4" height="77.1"/>
<rect x="261.3" y="214.7" transform="matrix(0.866 0.5 -0.5 0.866 174.0779 -112.4923)" class="st6" width="71.3" height="107.9"/>
<path d="M492.8,302.2c0-18.8-15.2-34-34-34s-34,15.2-34,34c0,18.8,15.2,34,34,34S492.8,321,492.8,302.2z"/>
<polygon class="st0" points="285.1,252.2 337.2,272.4 328.6,217.2 320,162.1 276.5,197.1 233,232.1 "/>
<circle class="st5" cx="351.1" cy="256.2" r="49.5"/>
<polygon class="st2" points="345.4,331.3 374,345.8 372.2,313.8 370.5,281.8 343.7,299.3 316.8,316.8 "/>
<rect x="308.2" y="179.7" transform="matrix(0.2345 -0.9721 0.9721 0.2345 57.2813 489.4242)" class="st7" width="62.4" height="57.3"/>
<rect x="229" y="176" transform="matrix(0.9928 -0.1199 0.1199 0.9928 -21.1773 34.5804)" width="95.3" height="34.4"/>
<rect x="273.7" y="290.2" transform="matrix(0.3601 -0.9329 0.9329 0.3601 -88.7473 490.4167)" class="st3" width="78.9" height="39.4"/>
<circle class="st0" cx="453.8" cy="198.5" r="25.9"/>
<polygon class="st1" points="301.8,272.7 311.3,285.6 326,264.7 340.7,243.8 316.5,251.8 292.2,259.7 "/>
<polygon points="393.9,229.4 387.1,245.3 404.3,243.3 421.5,241.2 411.1,227.4 400.7,213.5 "/>
<rect x="326.7" y="274.1" transform="matrix(0.866 -0.5 0.5 0.866 -98.4186 208.9765)" width="28.1" height="28.1"/>
</svg>
