<?xml version="1.0" encoding="utf-8"?>
<!-- Generator: Adobe Illustrator 28.0.0, SVG Export Plug-In . SVG Version: 6.00 Build 0)  -->
<svg version="1.1" id="Layer_1" xmlns="http://www.w3.org/2000/svg" xmlns:xlink="http://www.w3.org/1999/xlink" x="0px" y="0px"
	 viewBox="0 0 1020.3 182.9" style="enable-background:new 0 0 1020.3 182.9;" xml:space="preserve">
<style type="text/css">
	.st0{fill:#FFF200;}
	.st1{fill:#F7941D;}
	.st2{fill:#2B3990;}
	.st3{fill:#00A79D;}
	.st4{fill:#BB2025;}
	.st5{fill:#D1D3D4;}
	.st6{fill:#00AEEF;}
	.st7{fill:#EC008C;}
	.st8{fill:none;}
</style>
<polygon class="st0" points="662.8,24.6 613.9,18.6 643.6,-20.7 673.2,-60 692.4,-14.7 711.6,30.6 "/>
<polygon class="st1" points="352.6,-15.2 314.7,-29.9 324.1,2.3 333.4,34.5 362,16.9 390.5,-0.6 "/>
<circle class="st2" cx="1001.3" cy="33.2" r="50.2"/>
<rect x="822.7" y="-3.9" transform="matrix(-8.980390e-11 1 -1 -8.980390e-11 933.1343 -831.4465)" class="st0" width="119.1" height="109.4"/>
<rect x="871.5" y="8.9" transform="matrix(-0.5 0.866 -0.866 -0.5 1438.1158 -734.275)" class="st3" width="119.1" height="78.2"/>
<polygon points="941.9,26.5 925.8,19.5 927.8,37 929.9,54.4 944,43.9 958,33.4 "/>
<circle class="st4" cx="914.3" cy="44.3" r="60.7"/>
<path class="st5" d="M743,51.4c0,27.8-19.1,50.3-42.6,50.3s-42.6-22.5-42.6-50.3s19.1-50.3,42.6-50.3S743,23.7,743,51.4z"/>
<path class="st4" d="M787.5,19.5c0,14.6-11.8,26.3-26.3,26.3c-14.6,0-26.3-11.8-26.3-26.3s11.8-26.3,26.3-26.3
	C775.7-6.8,787.5,5,787.5,19.5z"/>
<rect x="768.6" y="-16.4" class="st0" width="119.3" height="109.6"/>
<path d="M904.4,34.5c0,19.1-15.5,34.6-34.6,34.6c-19.1,0-34.6-15.5-34.6-34.6s15.5-34.6,34.6-34.6C888.9-0.1,904.4,15.4,904.4,34.5z
	"/>
<rect x="694.7" y="9.7" transform="matrix(0.3601 0.9329 -0.9329 0.3601 497.853 -666.5217)" class="st3" width="80.1" height="40"/>
<rect x="931.5" y="8.7" transform="matrix(-0.3509 -0.9364 0.9364 -0.3509 1247.2433 1014.3159)" class="st5" width="87.5" height="132.3"/>
<rect x="765.7" y="29.9" transform="matrix(0.866 -0.5 0.5 0.866 76.0551 421.9235)" class="st3" width="119.3" height="78.3"/>
<rect x="877.2" y="32.4" transform="matrix(-0.5 0.866 -0.866 -0.5 1467.1052 -703.9431)" class="st5" width="119.1" height="78.2"/>
<circle class="st2" cx="1011.6" cy="59.4" r="50.2"/>
<circle class="st6" cx="955.3" cy="116.7" r="35.9"/>
<polygon points="940,56.4 923.9,49.5 926,66.9 928,84.4 942.1,73.8 956.1,63.3 "/>
<polygon class="st1" points="693.1,145.2 644.3,139.2 673.9,99.9 703.5,60.6 722.7,105.9 742,151.2 "/>
<circle class="st2" cx="821" cy="98.7" r="47.3"/>
<rect x="750.5" y="67.1" transform="matrix(-0.3601 0.9329 -0.9329 -0.3601 1130.6671 -600.0433)" width="41.3" height="41.3"/>
<circle class="st2" cx="693.6" cy="46.1" r="50.2"/>
<polygon class="st1" points="768.6,44.3 730.7,29.6 740,61.8 749.4,94 777.9,76.5 806.5,58.9 "/>
<polygon class="st0" points="988.8,146.4 940,140.4 969.6,101.1 999.2,61.8 1018.5,107.1 1037.7,152.4 "/>
<rect x="878.9" y="81.9" transform="matrix(-0.5593 0.829 -0.829 -0.5593 1511.2311 -581.9956)" class="st4" width="62.8" height="57.7"/>
<polygon points="1020.3,132.9 1046.6,127.7 1029,107.5 1011.3,87.4 1002.7,112.8 994.1,138.1 "/>
<circle class="st1" cx="866.1" cy="122.2" r="34.5"/>
<rect x="732.6" y="97.4" transform="matrix(-0.8709 0.4914 -0.4914 -0.8709 1534.8031 -148.6852)" class="st4" width="108.6" height="59.6"/>
<ellipse transform="matrix(0.6355 -0.7721 0.7721 0.6355 170.095 604.4664)" class="st0" cx="725.3" cy="122.1" rx="60.7" ry="51.4"/>
<polygon class="st3" points="730.3,127.1 751.2,123 737.2,107 723.2,91.1 716.4,111.2 709.5,131.2 "/>
<rect x="624.5" y="27.1" transform="matrix(-0.3509 -0.9364 0.9364 -0.3509 815.3928 751.7989)" class="st5" width="87.5" height="132.3"/>
<rect x="508.2" y="-7.7" transform="matrix(-8.980390e-11 1 -1 -8.980390e-11 614.7249 -520.7495)" class="st0" width="119.1" height="109.4"/>
<rect x="556.9" y="5" transform="matrix(-0.5 0.866 -0.866 -0.5 962.9465 -467.6483)" class="st3" width="119.1" height="78.2"/>
<polygon points="627.3,22.6 611.2,15.7 613.3,33.1 615.4,50.5 629.4,40 643.4,29.5 "/>
<polygon class="st3" points="700.7,11.6 662.8,-3 672.1,29.2 681.5,61.3 710,43.8 738.6,26.2 "/>
<circle class="st4" cx="599.7" cy="40.5" r="60.7"/>
<path class="st5" d="M428.4,47.6c0,27.8-19.1,50.3-42.6,50.3c-23.5,0-42.6-22.5-42.6-50.3s19.1-50.3,42.6-50.3
	C409.4-2.7,428.4,19.8,428.4,47.6z"/>
<path class="st4" d="M472.9,15.7c0,14.6-11.8,26.3-26.3,26.3s-26.3-11.8-26.3-26.3s11.8-26.3,26.3-26.3S472.9,1.1,472.9,15.7z"/>
<rect x="454" y="-20.3" class="st0" width="119.3" height="109.6"/>
<path d="M589.8,30.6c0,19.1-15.5,34.6-34.6,34.6c-19.1,0-34.6-15.5-34.6-34.6s15.5-34.6,34.6-34.6C574.4-3.9,589.8,11.5,589.8,30.6z
	"/>
<rect x="380.2" y="5.8" transform="matrix(0.3601 0.9329 -0.9329 0.3601 292.971 -375.5376)" class="st3" width="80.1" height="40"/>
<rect x="567.2" y="5.2" transform="matrix(-0.3509 -0.9364 0.9364 -0.3509 758.496 668.5111)" class="st5" width="87.5" height="132.3"/>
<rect x="451.2" y="26" transform="matrix(0.866 -0.5 0.5 0.866 35.841 264.1303)" class="st3" width="119.3" height="78.3"/>
<circle class="st2" cx="647.3" cy="55.9" r="50.2"/>
<circle class="st6" cx="640.8" cy="112.9" r="35.9"/>
<polygon points="625.5,52.6 609.3,45.7 611.4,63.1 613.5,80.5 627.5,70 641.6,59.5 "/>
<polygon class="st1" points="378.6,141.4 329.7,135.4 359.3,96.1 389,56.8 408.2,102.1 427.4,147.4 "/>
<circle class="st2" cx="506.4" cy="94.8" r="47.3"/>
<rect x="435.9" y="63.2" transform="matrix(-0.3601 0.9329 -0.9329 -0.3601 699.2477 -311.8365)" width="41.3" height="41.3"/>
<circle class="st2" cx="379" cy="42.2" r="50.2"/>
<rect x="200.5" y="5.2" transform="matrix(-8.981189e-11 1 -1 -8.981189e-11 319.9542 -200.1817)" class="st0" width="119.1" height="109.4"/>
<rect x="249.3" y="17.9" transform="matrix(-0.5 0.866 -0.866 -0.5 512.6132 -181.8512)" class="st3" width="119.1" height="78.2"/>
<circle cx="245.8" cy="101.3" r="34.5"/>
<circle class="st6" cx="329.1" cy="93.1" r="26.3"/>
<polygon points="319.7,35.5 303.5,28.6 305.6,46 307.7,63.4 321.7,52.9 335.8,42.4 "/>
<polygon class="st1" points="454,40.4 416.1,25.8 425.5,58 434.8,90.2 463.4,72.6 491.9,55.1 "/>
<polygon class="st0" points="624.6,142.9 575.8,136.9 605.4,97.6 635,58.3 654.2,103.6 673.5,148.9 "/>
<ellipse transform="matrix(0.6355 -0.7721 0.7721 0.6355 -30.4488 183.5415)" class="st2" cx="179.2" cy="124" rx="60.7" ry="51.4"/>
<polygon class="st6" points="296.2,92.7 245.2,46.9 231.1,113.9 216.9,180.9 282,159.7 347.1,138.5 "/>
<circle class="st4" cx="292.1" cy="53.4" r="60.7"/>
<rect x="564.4" y="78" transform="matrix(-0.5593 0.829 -0.829 -0.5593 1017.5648 -327.2459)" class="st4" width="62.8" height="57.7"/>
<polygon class="st0" points="351.6,76.3 352.6,56.6 322.4,64.9 292.2,73.2 321.4,84.6 350.6,96 "/>
<polygon points="656.1,129.4 682.4,124.2 664.7,104 647.1,83.9 638.5,109.3 629.8,134.6 "/>
<path class="st5" d="M120.7,60.5c0,27.8-19.1,50.3-42.6,50.3S35.6,88.2,35.6,60.5s19.1-50.3,42.6-50.3S120.7,32.7,120.7,60.5z"/>
<path class="st4" d="M152.1,10.7c0,14.6-11.8,26.3-26.3,26.3S99.4,25.3,99.4,10.7s11.8-26.3,26.3-26.3S152.1-3.8,152.1,10.7z"/>
<rect x="146.3" y="-7.4" class="st0" width="119.3" height="109.6"/>
<path d="M282.2,43.5c0,19.1-15.5,34.6-34.6,34.6S213,62.6,213,43.5S228.5,9,247.6,9S282.2,24.4,282.2,43.5z"/>
<path class="st1" d="M59.4,82.6c0,12.2-9.9,22.2-22.2,22.2S15,94.8,15,82.6S25,60.5,37.2,60.5S59.4,70.4,59.4,82.6z"/>
<polygon class="st6" points="71,83.9 123.9,63.4 115.1,119.5 106.4,175.5 62.2,139.9 18.1,104.3 "/>
<polygon class="st2" points="132.2,3.5 161.2,-11.2 159.5,21.3 157.8,53.8 130.5,36.1 103.2,18.3 "/>
<rect x="59.4" y="5.3" transform="matrix(0.3601 0.9329 -0.9329 0.3601 87.22 -76.5722)" class="st3" width="80.1" height="40"/>
<polygon class="st3" points="22.1,59.4 11,45.8 28.3,42.9 45.7,40.1 39.5,56.5 33.2,73 "/>
<rect x="113.2" y="33.1" transform="matrix(0.866 0.5 -0.5 0.866 40.7828 -57.4)" width="28.5" height="28.5"/>
<circle class="st1" cx="551.6" cy="118.4" r="34.5"/>
<rect x="418.1" y="93.6" transform="matrix(-0.8709 0.4914 -0.4914 -0.8709 944.402 -1.3248)" class="st4" width="108.6" height="59.6"/>
<ellipse transform="matrix(0.6355 -0.7721 0.7721 0.6355 58.4326 360.2065)" class="st0" cx="410.8" cy="118.2" rx="60.7" ry="51.4"/>
<polygon class="st3" points="415.8,123.3 436.6,119.1 422.6,103.2 408.6,87.2 401.8,107.3 395,127.4 "/>
<rect x="309.2" y="17.7" transform="matrix(-0.3509 -0.9364 0.9364 -0.3509 398.246 443.8621)" class="st5" width="87.5" height="132.3"/>
<rect x="227.5" y="72.7" transform="matrix(-0.7989 0.6015 -0.6015 -0.7989 542.9827 34.1663)" class="st1" width="76.5" height="70.3"/>
<rect x="143.5" y="38.9" transform="matrix(0.866 -0.5 0.5 0.866 -11.8281 112.0237)" class="st3" width="119.3" height="78.3"/>
<circle class="st0" cx="239.2" cy="116.5" r="26.3"/>
<path class="st4" d="M188.3,79.8c0,27.8-22.5,50.3-50.3,50.3s-50.3-22.5-50.3-50.3s22.5-50.3,50.3-50.3S188.3,52.1,188.3,79.8z"/>
<rect x="76.3" y="82.6" transform="matrix(0.2345 0.9721 -0.9721 0.2345 196.5175 -20.3408)" class="st1" width="69.7" height="64.1"/>
<polygon class="st0" points="87.9,63.1 97.6,50 112.6,71.2 127.5,92.4 102.8,84.3 78.2,76.3 "/>
</svg>
